# xmcd CD database file
#
# Track frame offsets:
#	150
#	12009
#	31526
#	43986
#	56140
#	67474
#	82236
#	95894
#	111410
#	126156
#	142183
#	156698
#
# Disc length: 2258 seconds
#
# Revision: 0
# Processed by: cddbd v1.4PL0 Copyright (c) Steve Scherf et al.
# Submitted via: CDex 1.40Release
#
DISCID=be08d00c
DTITLE=Tina Turner - Tina Turner Sings Country
DYEAR=1999
DGENRE=Country
TTITLE0=Stand by Your Man
TTITLE1=Lovin' Him Was Easier
TTITLE2=If It's Alright with You
TTITLE3=You Ain't Woman Enough to Take My Man
TTITLE4=Soul Deep
TTITLE5=We Had it All (featuring Charlie McCoy)
TTITLE6=Freedom to Stay
TTITLE7=If This Is Our Last Time
TTITLE8=Good Hearted Woman (featuring Charlie McCoy)
TTITLE9=Lay It Down
TTITLE10=Tina's Rock Anthem Medley
TTITLE11=Medley: Stand by Your Man, ...
EXTD=YEAR: 1999 ID3G: 2
EXTT0=
EXTT1=
EXTT2=
EXTT3=
EXTT4=
EXTT5=
EXTT6=
EXTT7=
EXTT8=
EXTT9=
EXTT10=
EXTT11=
PLAYORDER=
